<svg width="70" height="47" viewBox="0 0 70 47" fill="none" xmlns="http://www.w3.org/2000/svg">
<path d="M46.3062 46.6667H0V0H46.3062V15.9676H44.1596V2.16331H2.1466V44.5032H44.1596V30.5959H46.3062V46.6667Z" fill="white"/>
<path d="M9.46094 18.5405H11.6115V22.6724L14.6899 18.5405H17.2708L13.7355 22.9162L17.553 28.0234H14.8244L11.6115 23.5123V28.0234H9.46094V18.5405Z" fill="white"/>
<path d="M23.1626 26.0682C24.8973 26.0682 25.7971 24.8329 25.7971 23.2818C25.7971 21.5994 24.6364 20.4954 23.1626 20.4954C21.6496 20.4954 20.5281 21.5994 20.5281 23.2818C20.5281 24.8591 21.7019 26.0682 23.1626 26.0682ZM23.1626 18.5239C25.9404 18.5239 28.0143 20.3508 28.0143 23.2818C28.0143 26.0682 25.9404 28.0399 23.1626 28.0399C20.3848 28.0399 18.3109 26.2128 18.3109 23.2818C18.3109 20.6137 20.2542 18.5239 23.1626 18.5239Z" fill="white"/>
<path d="M37.0606 28.0233L32.598 22.3334V28.0233H30.5815V18.543H32.302L36.765 24.2573L36.7621 18.5433H38.7783L38.7812 28.0233H37.0606Z" fill="white"/>
<path d="M41.3698 18.5405H49.1661V20.5726H46.3432V28.0234H44.1924V20.5726H41.3698V18.5405Z" fill="white"/>
<path d="M59.601 23.9443C59.601 26.8436 57.7729 28.0222 55.7567 28.0222C53.3371 28.0222 51.6567 26.6266 51.6567 23.8497V18.5444H53.8075V23.3891C53.8075 24.8657 54.2511 25.9901 55.7567 25.9901C57.0605 25.9901 57.4504 25.0283 57.4504 23.5109V18.5444H59.601V23.9443Z" fill="white"/>
<path d="M64.3363 20.6037V22.7033H65.1158C65.9359 22.7033 66.581 22.4054 66.581 21.6061C66.581 21.0778 66.3137 20.6015 65.2786 20.6015C64.9561 20.6015 64.78 20.5901 64.3363 20.6037ZM62.1855 28.0222V18.5444C62.7098 18.5444 65.1158 18.5444 65.3848 18.5444C67.9522 18.5444 68.8662 19.8316 68.8662 21.5791C68.8662 23.3402 67.791 24.0581 67.2801 24.3155L69.9999 28.0222H67.392L65.1293 24.7354H64.3363V28.0222H62.1855Z" fill="white"/>
</svg>
